<svg id="illustration" xmlns="http://www.w3.org/2000/svg" viewBox="0 0 400 400"><defs><style>.cls-1{fill:#3f8f6f;}.cls-2{fill:#709d53;}.cls-3{fill:#dfbda5;}.cls-16,.cls-4{fill:#2b2b2b;}.cls-4{opacity:0.1;}.cls-5{fill:#e8f078;}.cls-6{fill:#d9e354;}.cls-7{fill:#b8c745;}.cls-8{fill:#c3987b;}.cls-9{fill:#8b6651;}.cls-10{fill:#e8cab6;}.cls-11{fill:#99c26d;}.cls-12{fill:#5a753d;}.cls-13{fill:#35785d;}.cls-14{fill:#54b08b;}.cls-15{fill:#738d57;}</style></defs><title>Mediator (INFP) personality</title><polygon class="cls-1" points="233.89 248.88 205.94 242.4 182.67 233.68 172.09 250.39 156.74 266.96 166.68 277.26 172.37 290.15 157.68 294.26 131.17 295.92 138.16 299.88 140.68 304.56 163.44 323.79 191.46 350.88 195.78 352.82 201.47 359.95 202.56 349.37 206.81 341.15 221.21 286.41 233.89 248.88"/><polygon class="cls-2" points="275.67 200.04 257.95 207.89 232.23 212.5 229.35 198.67 230.94 184.34 218.91 186.43 208.46 184.7 200.32 184.91 190.6 183.19 175.11 179.73 157.53 168.63 151.2 185.63 135.35 214.59 140.75 225.18 147.23 252.7 150.98 225.4 157.68 208.32 162.58 204.94 171.37 204.51 177.92 215.67 179.43 225.04 182.17 228.78 182.67 233.68 205.72 238.94 233.89 248.88 256.15 227.77 281.29 208.61 277.04 204.87 275.67 200.04"/><polygon class="cls-3" points="264.29 22.12 258.38 21.18 254.78 17.51 236.92 10.59 220.06 0 193.77 11.1 170.57 16.43 166.54 32.35 157.53 51.08 155.88 56.41 152.92 60.59 152.56 84.36 148.89 128.37 142.12 140.61 130.67 154.59 145.36 160.13 157.53 168.63 172.81 177.28 190.6 183.19 202.84 185.56 208.46 184.7 223.09 186.07 230.94 184.34 238 182.18 246.28 184.05 238.07 171.73 230.14 154.23 237.56 137.73 248.15 122.39 264.36 114.68 283.74 108.2 269.55 71.39 259.68 31.7 260.47 26.08 264.29 22.12"/><polygon class="cls-4" points="272.79 390.02 191.9 376.59 93.57 386.89 169.71 400 272.79 390.02"/><polygon class="cls-3" points="248.15 122.39 283.74 108.2 259.68 31.7 250.31 26.95 240.73 22.34 226.18 16.72 215.23 33.14 213 31.99 208.53 41.21 229.64 128.94 248.15 122.39"/><polygon class="cls-5" points="259.75 31.7 254.78 17.51 220.06 0 217.83 16.93 226.18 16.72 240.73 22.34 250.31 26.95 259.75 31.7"/><polygon class="cls-6" points="220.06 0 170.57 16.43 157.53 51.08 152.92 60.59 166.83 55.76 180.66 51.15 194.49 46.25 208.61 41.35 215.23 33.14 226.18 16.72 220.06 0"/><polygon class="cls-7" points="208.61 41.35 194.85 46.18 180.66 51.15 166.83 55.76 152.92 60.59 148.89 128.37 204.07 50.86 208.61 41.35"/><polygon class="cls-8" points="241.38 51.44 248.59 71.03 261.62 47.69 241.38 51.44"/><polygon class="cls-8" points="236.56 52.3 219.34 65.05 233.96 66.92 247.36 82.63 236.56 52.3"/><polygon class="cls-8" points="208.61 41.35 229.64 128.94 226.62 132.19 218.62 133.27 213 126.28 209.04 116.27 206.66 89.9 208.61 41.35"/><polygon class="cls-9" points="252.33 81.11 251.11 86.37 247.36 82.63 252.33 81.11"/><polygon class="cls-7" points="236.56 52.3 220.42 59.43 219.34 65.05 236.56 52.3"/><polygon class="cls-7" points="241.38 51.44 260.04 44.66 261.62 47.69 241.38 51.44"/><polygon class="cls-9" points="218.62 133.27 230.14 154.23 248.15 122.39 229.64 128.94 218.62 133.27"/><polygon class="cls-10" points="236.56 52.3 247.36 82.63 252.33 81.11 241.38 51.44 236.56 52.3"/><polygon class="cls-5" points="204.07 50.86 190.6 183.19 208.46 184.7 209.04 116.27 208.53 41.21 204.07 50.86"/><polygon class="cls-6" points="201.62 74.27 157.53 168.63 130.67 154.59 148.89 128.37 204.07 50.86 201.62 74.27"/><polygon class="cls-6" points="209.04 116.27 230.14 154.23 246.28 184.05 208.46 184.7 209.04 116.27"/><polygon class="cls-7" points="201.62 74.27 157.53 168.63 190.6 183.19 194.34 145.94 200.75 117.56 201.62 74.27"/><polygon class="cls-11" points="268.83 89.54 254.2 99.7 235.19 100.2 255.72 105.32 268.83 89.54"/><polygon class="cls-12" points="268.83 89.54 262.85 91.7 254.56 93.07 249.23 94.87 242.97 98.47 235.19 100.2 254.2 99.7 268.83 89.54"/><polygon class="cls-13" points="264.29 22.12 254.78 17.51 250.1 27.02 259.75 31.7 264.29 22.12"/><polygon class="cls-14" points="250.31 26.95 240.73 22.34 236.12 31.84 245.78 36.53 250.31 26.95"/><polygon class="cls-13" points="236.48 31.7 226.83 27.02 222.29 36.6 231.8 41.21 236.48 31.7"/><polygon class="cls-14" points="222.51 36.6 213 31.99 208.32 41.57 217.9 46.18 222.51 36.6"/><polygon class="cls-13" points="208.61 41.35 199.03 36.67 194.49 46.25 204.07 50.86 208.61 41.35"/><polygon class="cls-14" points="194.85 46.18 185.34 41.5 180.66 51.15 190.31 55.69 194.85 46.18"/><polygon class="cls-13" points="181.02 50.86 171.37 46.25 166.83 55.76 176.41 60.44 181.02 50.86"/><polygon class="cls-14" points="167.12 55.69 157.53 51.08 152.92 60.59 162.43 65.27 167.12 55.69"/><polygon class="cls-12" points="208.68 69.44 201.62 74.27 199.96 91.13 208.82 85.15 208.68 69.44"/><polygon class="cls-11" points="208.82 85.15 199.96 91.13 198.74 103.37 208.89 97.75 208.82 85.15"/><polygon class="cls-12" points="208.89 97.75 198.74 103.37 197.3 116.99 208.97 110.5 208.89 97.75"/><polygon class="cls-11" points="208.97 110.5 197.3 116.99 195.78 132.04 208.97 124.48 208.97 110.5"/><polygon class="cls-12" points="208.97 124.48 195.78 132.04 194.34 145.94 208.89 137.88 208.97 124.48"/><polygon class="cls-15" points="230.94 184.34 233.89 248.88 190.6 183.19 208.46 184.7 230.94 184.34"/><polygon class="cls-11" points="232.23 212.5 275.67 200.04 279.77 203.79 281.29 208.61 233.89 248.88 232.23 212.5"/><polygon class="cls-3" points="275.67 200.04 282.51 192.98 291.23 199.47 300.74 184.05 303.33 184.05 298.86 204.65 281.29 208.61 275.67 200.04"/><polygon class="cls-9" points="279.05 196.44 298.86 204.65 302.68 195.36 303.33 184.05 300.74 184.05 294.47 191.9 291.23 199.47 287.12 194.57 282.51 192.98 279.05 196.44"/><polygon class="cls-12" points="157.53 168.63 179.43 225.04 192.76 229.14 219.92 227.77 190.6 183.19 157.53 168.63"/><polygon class="cls-11" points="219.92 227.77 179.43 225.04 182.67 233.68 201.84 247.44 233.89 248.88 219.92 227.77"/><polygon class="cls-15" points="157.53 168.63 135.35 214.59 171.37 204.51 157.53 168.63"/><polygon class="cls-11" points="157.68 208.32 147.23 252.7 139.5 240.66 140.32 230.52 135.35 214.59 157.68 208.32"/><polygon class="cls-3" points="147.23 252.7 138.2 253.63 127.46 250.55 140.33 230.51 147.23 252.7"/><polygon class="cls-14" points="182.67 233.68 156.74 266.96 190.74 272.65 233.89 248.88 182.67 233.68"/><polygon class="cls-1" points="156.74 266.96 172.37 290.15 164.16 314.36 206.81 341.15 233.89 248.88 156.74 266.96"/><polygon class="cls-13" points="172.37 290.15 131.17 295.92 135.42 301.97 140.68 304.56 192.11 351.38 194.49 354.33 201.47 359.95 206.81 341.15 172.37 290.15"/><polygon class="cls-3" points="131.17 295.92 117.99 291.16 110.86 330.42 140.68 304.56 131.17 295.92"/><polygon class="cls-8" points="119.36 323.07 122.24 339.71 110.86 330.42 119.36 323.07"/><polygon class="cls-3" points="192.11 351.38 176.98 362.62 191.9 391.87 201.47 359.95 192.11 351.38"/><polygon class="cls-8" points="191.9 391.87 208.89 391.5 194.85 381.92 191.9 391.87"/><polygon class="cls-9" points="131.17 295.92 134.27 310.18 140.68 304.56 131.17 295.92"/><polygon class="cls-9" points="201.47 359.95 188.44 354.19 191.46 350.88 201.47 359.95"/><polygon class="cls-8" points="138.2 253.63 119.31 237.99 116.14 250.37 124.49 255.12 138.2 253.63"/><polygon class="cls-1" points="336.14 29.43 320.8 2.06 314.03 27.34 336.14 29.43"/><polygon class="cls-14" points="314.03 27.34 289.39 21.07 304.3 47.58 314.03 27.34"/><polygon class="cls-15" points="335.78 39.23 314.03 27.34 316.98 35.34 322.09 40.74 335.78 39.23"/><polygon class="cls-11" points="314.03 27.34 313.38 51.98 322.09 40.74 314.03 27.34"/><polygon class="cls-1" points="99.8 31.91 115.07 4.47 121.92 29.75 99.8 31.91"/><polygon class="cls-14" points="121.92 29.75 146.55 23.49 131.57 49.99 121.92 29.75"/><polygon class="cls-15" points="100.16 41.57 121.92 29.75 117.81 39.05 113.78 43.15 100.16 41.57"/><polygon class="cls-11" points="121.92 29.75 122.56 54.39 113.78 43.15 121.92 29.75"/><polygon class="cls-1" points="98.04 183.83 92.99 152.79 77.94 174.25 98.04 183.83"/><polygon class="cls-14" points="77.94 174.25 56.98 159.85 61.95 189.96 77.94 174.25"/><polygon class="cls-15" points="94.36 192.76 77.94 174.25 78.59 183.04 80.96 189.6 94.36 192.76"/><polygon class="cls-11" points="77.94 174.25 68.94 197.09 80.96 189.6 77.94 174.25"/><polygon class="cls-12" points="312.41 184.05 297.13 184.05 297.13 168.85 312.41 168.85 312.41 184.05"/><polygon class="cls-15" points="306.86 204.94 307.15 223.52 303.4 223.52 303.69 204.94 306.86 204.94"/><polygon class="cls-7" points="304.84 168.85 306.36 150.7 285.18 156.39 297.13 168.85 304.84 168.85"/><polygon class="cls-7" points="297.13 172.16 277.18 163.01 270.05 181.02 297.13 177.85 297.13 172.16"/><polygon class="cls-7" points="297.13 181.02 273.87 186.35 291.23 199.47 300.74 184.05 297.13 184.05 297.13 181.02"/><polygon class="cls-7" points="303.33 184.05 298.86 204.65 317.16 204.94 308.73 184.05 303.33 184.05"/><polygon class="cls-7" points="312.41 184.05 326.45 202.63 338.19 191.25 312.41 179.73 312.41 184.05"/><polygon class="cls-7" points="312.41 177.28 339.63 183.76 342.37 168.42 312.41 173.75 312.41 177.28"/><polygon class="cls-7" points="312.41 171.23 335.6 159.05 319.83 149.47 307.22 168.85 312.41 168.85 312.41 171.23"/><polygon class="cls-6" points="304.84 168.85 297.13 176.49 304.84 184.05 312.41 176.49 304.84 168.85"/><path class="cls-16" d="M256.8,56.62a4,4,0,0,0-4,4,4,4,0,0,0,4,4,4.09,4.09,0,0,0,4.1-4A4,4,0,0,0,256.8,56.62Z"/><path class="cls-16" d="M230.29,66.2a4.16,4.16,0,0,0-4.11,4.11,4.09,4.09,0,0,0,4.11,4,4,4,0,0,0,4-4A4.09,4.09,0,0,0,230.29,66.2Z"/></svg>



